<?xml version="1.0" encoding="utf-8"?>
<!-- Generator: Adobe Illustrator 23.0.5, SVG Export Plug-In . SVG Version: 6.00 Build 0)  -->
<svg version="1.1" id="Layer_1" xmlns="http://www.w3.org/2000/svg" xmlns:xlink="http://www.w3.org/1999/xlink" x="0px" y="0px"
	 viewBox="0 0 512 512" style="enable-background:new 0 0 512 512;" xml:space="preserve">
<style type="text/css">
	.st0{fill:#C9CACC;}
	.st1{fill:#FFFFFF;}
	.st2{fill:#6B6C6F;}
</style>
<path class="st0" d="M481.6,9.2C477.6,3.5,471,0,464,0H234.7c-35.3,0-64,28.7-64,64v16.6c0.8,0.8,1.8,1.3,2.6,2.1l85.3,85.3
	c12.1,12.1,18.8,28.2,18.8,45.2c0,17.1-6.7,33.2-18.8,45.3l-85.3,85.3c-0.8,0.8-1.7,1.4-2.6,2.1v38c0,35.3,28.7,64,64,64h74.7
	c8.9,0,16.8-5.5,19.9-13.7L483.9,28.9C486.4,22.4,485.5,15,481.6,9.2z"/>
<path class="st1" d="M119.8,318.4c-8-3.3-13.2-11.1-13.2-19.7v-64H21.3C9.6,234.7,0,225.1,0,213.3C0,201.6,9.6,192,21.3,192h85.3
	v-64c0-8.6,5.2-16.4,13.2-19.7c8-3.3,17.2-1.5,23.3,4.6l85.3,85.3c8.3,8.3,8.3,21.8,0,30.2l-85.3,85.3
	C137,319.9,127.8,321.7,119.8,318.4z"/>
<path class="st2" d="M455.7,2.1L327.6,44.8c-17.3,6-28.9,22.3-28.9,40.5v384c0,23.5,19.1,42.7,42.7,42.7c4.6,0,8.9-0.7,13.6-2.1
	l128.2-42.7c17.3-6,28.9-22.3,28.9-40.5v-384C512,14.6,484.7-6.8,455.7,2.1z"/>
</svg>
